# xmcd
#
# Track frame offsets:
#	150
#	49147
#	63733
#	76324
#	86486
#	102033
#	114527
#	132105
#	150258
#	171376
#	183596
#	205073
#	216784
#	228975
#	240362
#	254284
#
# Disc length: 3609
#
# Revision: 1
# Processed by: cddbd v1.5.1PL0 Copyright (c) Steve Scherf et al.
# Submitted via: audiograbber 1.83.01
# Normalized: r0:DSETVAR1
#
DISCID=cf0e1710
DTITLE=Various Artist - Robert Johnson Beg, Borrow or Steal [CD3]
DYEAR=1998
DGENRE=Blues
TTITLE0=Johnny Winter - Come On In My Kitchen
TTITLE1=Alexis Korner - Hellbound On My Trail
TTITLE2=Homesick James - Crossroads
TTITLE3=Canned Heat - Rollin and Tumblin'
TTITLE4=Peter Green and Splinter Group - Travelling Riverside Blues
TTITLE5=Elmore James - Dust My Broom
TTITLE6=Muddy Waters - Walking Blues
TTITLE7=David Hay - 32 - 20 Blues
TTITLE8=Joe Carter - Sweet Home Chicago
TTITLE9=Peter Green and Splinter group - From 4 Til Late
TTITLE10=David Hay - Me and The Devil
TTITLE11=Tony McPhee - Love In Vain
TTITLE12=King Biscuit Boy - Terraplane
TTITLE13=Johnny Shines - Ramblin On My Mind
TTITLE14=Sonney Boy Williamson - Steady Rolllin' Man
TTITLE15=Johnny Winter - Kind Hearted Woman Blues
EXTD=YEAR: 1998 ID3G: 0
EXTT0=
EXTT1=
EXTT2=
EXTT3=
EXTT4=
EXTT5=
EXTT6=
EXTT7=
EXTT8=
EXTT9=
EXTT10=
EXTT11=
EXTT12=
EXTT13=
EXTT14=
EXTT15=
PLAYORDER=
